<?xml version="1.0" standalone="no"?>
<!DOCTYPE svg PUBLIC "-//W3C//DTD SVG 20010904//EN"
 "http://www.w3.org/TR/2001/REC-SVG-20010904/DTD/svg10.dtd">
<svg version="1.0" xmlns="http://www.w3.org/2000/svg"
 width="700.000000pt" height="700.000000pt" viewBox="0 0 700.000000 700.000000"
 preserveAspectRatio="xMidYMid meet">
<metadata>
Created by potrace 1.11, written by Peter Selinger 2001-2013
</metadata>
<g transform="translate(0.000000,700.000000) scale(0.100000,-0.100000)"
fill="#000000" stroke="none">
<path d="M424 6940 c-129 -19 -247 -109 -305 -233 l-34 -72 0 -3105 0 -3105
24 -58 c46 -115 147 -207 265 -242 75 -23 6177 -23 6252 0 118 35 219 127 265
242 l24 58 0 3105 0 3105 -34 72 c-60 128 -175 214 -314 234 -75 10 -6069 10
-6143 -1z m1998 -541 c120 -26 233 -112 259 -199 11 -38 9 -55 -24 -193 -335
-1391 -543 -3100 -452 -3717 28 -189 66 -262 138 -262 168 0 384 356 678 1115
38 97 143 381 233 630 297 817 359 974 464 1181 43 87 81 146 113 179 l48 50
63 -7 c63 -6 163 -47 205 -84 37 -33 73 -93 73 -124 0 -16 -25 -161 -55 -321
-134 -710 -223 -1334 -261 -1832 -20 -271 -15 -741 10 -855 24 -112 81 -219
131 -248 122 -71 333 63 507 323 332 496 586 1341 674 2245 36 373 28 997 -17
1335 -36 274 -37 247 5 292 97 108 292 121 379 24 35 -39 57 -105 57 -174 0
-18 14 -149 31 -292 21 -180 32 -328 36 -481 23 -909 -241 -2088 -623 -2788
-287 -526 -592 -776 -943 -776 -395 1 -644 254 -740 752 -35 179 -45 306 -46
555 0 133 -3 239 -6 235 -3 -4 -25 -54 -48 -110 -317 -777 -635 -1116 -1019
-1088 -384 28 -603 364 -663 1016 -15 166 -7 609 16 860 54 599 179 1372 330
2035 63 276 139 568 166 637 13 33 66 67 129 84 58 16 87 17 152 3z"/>
</g>
</svg>
